<svg width="175" height="60" viewBox="0 0 125 44" fill="none" xmlns="http://www.w3.org/2000/svg">
<path d="M22.5 0.5H101.5V43.5H22.5V22V0.5Z" stroke="#21B787"/>
<rect x="6" y="10" width="118.065" height="24" fill="#FFFFFE"/>
<path d="M19.5078 19.324V28H18.0858V22.396C18.0858 22.172 18.0978 21.93 18.1218 21.67L15.4998 26.596C15.3758 26.832 15.1858 26.95 14.9298 26.95H14.7018C14.4458 26.95 14.2558 26.832 14.1318 26.596L11.4798 21.652C11.4918 21.784 11.5018 21.914 11.5098 22.042C11.5178 22.17 11.5218 22.288 11.5218 22.396V28H10.0998V19.324H11.3178C11.3898 19.324 11.4518 19.326 11.5038 19.33C11.5558 19.334 11.6018 19.344 11.6418 19.36C11.6858 19.376 11.7238 19.402 11.7558 19.438C11.7918 19.474 11.8258 19.522 11.8578 19.582L14.4558 24.4C14.5238 24.528 14.5858 24.66 14.6418 24.796C14.7018 24.932 14.7598 25.072 14.8158 25.216C14.8718 25.068 14.9298 24.926 14.9898 24.79C15.0498 24.65 15.1138 24.516 15.1818 24.388L17.7438 19.582C17.7758 19.522 17.8098 19.474 17.8458 19.438C17.8818 19.402 17.9198 19.376 17.9598 19.36C18.0038 19.344 18.0518 19.334 18.1038 19.33C18.1558 19.326 18.2178 19.324 18.2898 19.324H19.5078ZM26.0276 24.724L24.9716 21.838C24.9196 21.71 24.8656 21.558 24.8096 21.382C24.7536 21.206 24.6976 21.016 24.6416 20.812C24.5896 21.016 24.5356 21.208 24.4796 21.388C24.4236 21.564 24.3696 21.718 24.3176 21.85L23.2676 24.724H26.0276ZM28.8776 28H27.6296C27.4896 28 27.3756 27.966 27.2876 27.898C27.1996 27.826 27.1336 27.738 27.0896 27.634L26.4416 25.864H22.8476L22.1996 27.634C22.1676 27.726 22.1056 27.81 22.0136 27.886C21.9216 27.962 21.8076 28 21.6716 28H20.4116L23.8256 19.324H25.4696L28.8776 28ZM32.3976 23.452C32.7016 23.452 32.9656 23.414 33.1896 23.338C33.4176 23.262 33.6036 23.158 33.7476 23.026C33.8956 22.89 34.0056 22.73 34.0776 22.546C34.1496 22.362 34.1856 22.16 34.1856 21.94C34.1856 21.5 34.0396 21.162 33.7476 20.926C33.4596 20.69 33.0176 20.572 32.4216 20.572H31.3896V23.452H32.3976ZM36.5496 28H35.0916C34.8156 28 34.6156 27.892 34.4916 27.676L32.6676 24.898C32.5996 24.794 32.5236 24.72 32.4396 24.676C32.3596 24.632 32.2396 24.61 32.0796 24.61H31.3896V28H29.7756V19.324H32.4216C33.0096 19.324 33.5136 19.386 33.9336 19.51C34.3576 19.63 34.7036 19.8 34.9716 20.02C35.2436 20.24 35.4436 20.504 35.5716 20.812C35.6996 21.116 35.7636 21.452 35.7636 21.82C35.7636 22.112 35.7196 22.388 35.6316 22.648C35.5476 22.908 35.4236 23.144 35.2596 23.356C35.0996 23.568 34.8996 23.754 34.6596 23.914C34.4236 24.074 34.1536 24.2 33.8496 24.292C33.9536 24.352 34.0496 24.424 34.1376 24.508C34.2256 24.588 34.3056 24.684 34.3776 24.796L36.5496 28ZM39.1005 22.96H39.4785C39.6305 22.96 39.7565 22.94 39.8565 22.9C39.9565 22.856 40.0425 22.788 40.1145 22.696L42.5085 19.666C42.6085 19.538 42.7125 19.45 42.8205 19.402C42.9325 19.35 43.0725 19.324 43.2405 19.324H44.6325L41.7105 22.93C41.5385 23.15 41.3605 23.306 41.1765 23.398C41.3085 23.446 41.4265 23.514 41.5305 23.602C41.6385 23.686 41.7405 23.798 41.8365 23.938L44.8485 28H43.4265C43.2345 28 43.0905 27.974 42.9945 27.922C42.9025 27.866 42.8245 27.786 42.7605 27.682L40.3065 24.478C40.2305 24.37 40.1425 24.294 40.0425 24.25C39.9425 24.206 39.7985 24.184 39.6105 24.184H39.1005V28H37.4865V19.324H39.1005V22.96ZM47.3331 20.608V23.014H50.3691V24.256H47.3331V26.71H51.1851V28H45.7131V19.324H51.1851V20.608H47.3331ZM58.6754 20.65H56.0594V28H54.4454V20.65H51.8294V19.324H58.6754V20.65ZM66.551 24.724L65.495 21.838C65.443 21.71 65.389 21.558 65.333 21.382C65.277 21.206 65.221 21.016 65.165 20.812C65.113 21.016 65.059 21.208 65.003 21.388C64.947 21.564 64.893 21.718 64.841 21.85L63.791 24.724H66.551ZM69.401 28H68.153C68.013 28 67.899 27.966 67.811 27.898C67.723 27.826 67.657 27.738 67.613 27.634L66.965 25.864H63.371L62.723 27.634C62.691 27.726 62.629 27.81 62.537 27.886C62.445 27.962 62.331 28 62.195 28H60.935L64.349 19.324H65.993L69.401 28ZM77.0416 19.324L73.5376 28H72.0796L68.5756 19.324H69.8716C70.0116 19.324 70.1256 19.358 70.2136 19.426C70.3016 19.494 70.3676 19.582 70.4116 19.69L72.4576 24.982C72.5256 25.154 72.5896 25.344 72.6496 25.552C72.7136 25.756 72.7736 25.97 72.8296 26.194C72.8776 25.97 72.9296 25.756 72.9856 25.552C73.0416 25.344 73.1036 25.154 73.1716 24.982L75.2056 19.69C75.2376 19.598 75.2996 19.514 75.3916 19.438C75.4876 19.362 75.6036 19.324 75.7396 19.324H77.0416ZM79.5597 20.608V23.014H82.5957V24.256H79.5597V26.71H83.4117V28H77.9397V19.324H83.4117V20.608H79.5597ZM92.156 19.324V28H91.328C91.2 28 91.092 27.98 91.004 27.94C90.92 27.896 90.838 27.824 90.758 27.724L86.228 21.94C86.252 22.204 86.264 22.448 86.264 22.672V28H84.842V19.324H85.688C85.756 19.324 85.814 19.328 85.862 19.336C85.914 19.34 85.958 19.352 85.994 19.372C86.034 19.388 86.072 19.414 86.108 19.45C86.144 19.482 86.184 19.526 86.228 19.582L90.776 25.39C90.764 25.25 90.754 25.112 90.746 24.976C90.738 24.84 90.734 24.714 90.734 24.598V19.324H92.156ZM97.5801 26.698C97.8921 26.698 98.1701 26.646 98.4141 26.542C98.6621 26.438 98.8701 26.292 99.0381 26.104C99.2061 25.916 99.3341 25.688 99.4221 25.42C99.5141 25.152 99.5601 24.852 99.5601 24.52V19.324H101.174V24.52C101.174 25.036 101.09 25.514 100.922 25.954C100.758 26.39 100.52 26.768 100.208 27.088C99.9001 27.404 99.5241 27.652 99.0801 27.832C98.6361 28.008 98.1361 28.096 97.5801 28.096C97.0201 28.096 96.5181 28.008 96.0741 27.832C95.6301 27.652 95.2521 27.404 94.9401 27.088C94.6321 26.768 94.3941 26.39 94.2261 25.954C94.0621 25.514 93.9801 25.036 93.9801 24.52V19.324H95.5941V24.514C95.5941 24.846 95.6381 25.146 95.7261 25.414C95.8181 25.682 95.9481 25.912 96.1161 26.104C96.2881 26.292 96.4961 26.438 96.7401 26.542C96.9881 26.646 97.2681 26.698 97.5801 26.698ZM104.614 20.608V23.014H107.65V24.256H104.614V26.71H108.466V28H102.994V19.324H108.466V20.608H104.614Z" fill="#131314"/>
</svg>
