<svg width="23" height="23" viewBox="0 0 23 23" fill="none" xmlns="http://www.w3.org/2000/svg">
<path d="M16.4192 14.5H15.4317L15.0817 14.1625C16.3067 12.7375 17.0442 10.8875 17.0442 8.875C17.0442 4.3875 13.4067 0.75 8.91919 0.75C4.43169 0.75 0.794189 4.3875 0.794189 8.875C0.794189 13.3625 4.43169 17 8.91919 17C10.9317 17 12.7817 16.2625 14.2067 15.0375L14.5442 15.3875V16.375L20.7942 22.6125L22.6567 20.75L16.4192 14.5ZM8.91919 14.5C5.80669 14.5 3.29419 11.9875 3.29419 8.875C3.29419 5.7625 5.80669 3.25 8.91919 3.25C12.0317 3.25 14.5442 5.7625 14.5442 8.875C14.5442 11.9875 12.0317 14.5 8.91919 14.5Z" fill="#6B6B67"/>
</svg>
