<svg width="20" height="24" viewBox="0 0 20 24" fill="none" xmlns="http://www.w3.org/2000/svg">
<path fill-rule="evenodd" clip-rule="evenodd" d="M15 9.6743V4.16573L7.5 0.428589L0 4.16573V9.77716C0 14.9657 3.2 19.8229 7.5 21C8.05 20.8514 8.58 20.6343 9.1 20.3714C10.18 22.1314 11.97 23.2857 14 23.2857C17.31 23.2857 20 20.2114 20 16.4286C20 13.0343 17.84 10.2229 15 9.6743ZM8 16.4286C8 17.0686 8.08 17.6972 8.23 18.28C7.99 18.4057 7.75 18.5314 7.5 18.6229C4.33 17.48 2 13.7772 2 9.77716V5.66287L7.5 2.92002L13 5.66287V9.6743C10.16 10.2229 8 13.0343 8 16.4286ZM14 21C11.79 21 10 18.9543 10 16.4286C10 13.9029 11.79 11.8572 14 11.8572C16.21 11.8572 18 13.9029 18 16.4286C18 18.9543 16.21 21 14 21Z" fill="#21B787"/>
</svg>